<svg xmlns="http://www.w3.org/2000/svg" viewBox="0 0 400 220" preserveAspectRatio="xMidYMid slice">
<defs>
<linearGradient id="bg" x1="0" y1="0" x2="1" y2="1"><stop offset="0%" stop-color="#F8F3EA"/><stop offset="100%" stop-color="#EFE4D2"/></linearGradient>
<linearGradient id="gold" x1="0" y1="0" x2="1" y2="1"><stop offset="0%" stop-color="#E5C07B"/><stop offset="100%" stop-color="#C9A35C"/></linearGradient>
</defs>
<rect width="400" height="220" fill="url(#bg)"/>
<circle cx="200" cy="110" r="64" fill="none" stroke="url(#gold)" stroke-width="3"/>
<circle cx="200" cy="110" r="52" fill="none" stroke="url(#gold)" stroke-width="1.5" opacity="0.6"/>
<g fill="url(#gold)">
<path d="M200 58 l3 8 8 3 -8 3 -3 8 -3 -8 -8 -3 8 -3z"/>
<circle cx="152" cy="110" r="2.5"/><circle cx="248" cy="110" r="2.5"/>
</g>
<path d="M60 40 l4 11 11 4 -11 4 -4 11 -4 -11 -11 -4 11 -4z" fill="url(#gold)" opacity="0.8"/>
<path d="M340 170 l3 9 9 3 -9 3 -3 9 -3 -9 -9 -3 9 -3z" fill="url(#gold)" opacity="0.7"/>
<path d="M0 200 Q100 188 200 196 T400 194 L400 220 L0 220z" fill="#E9DCC4" opacity="0.8"/>
<circle cx="320" cy="60" r="14" fill="#FFFFFF" opacity="0.5"/>
</svg>
